# xmcd
#
# Track frame offsets:
#	150
#	11651
#	21835
#	34831
#	47933
#	63879
#	75084
#	92826
#	110464
#	127075
#
# Disc length: 1864 seconds
#
# Revision: 0
# Processed by: cddbd v1.5.1PL2 Copyright (c) Steve Scherf et al.
# Submitted via: audiograbber 1.83.01
#
DISCID=7807460a
DTITLE=Varios - Festa Musical TaiÕ
DYEAR=2005
DGENRE=DIVERSOS
TTITLE0=Cece˙ - Chameguinho
TTITLE1=Luiz Gonzaga - Cintura Fina
TTITLE2=Dominguinhos - Pedras Que Cantam
TTITLE3=CecÈu - Forr” Do Xenhenhem
TTITLE4=Zeca Pagodinho - Baga«o Da Laranja
TTITLE5=Roque Ferreira - Samba Pras Mo«as
TTITLE6=Dudu Nobre - Posso At… Me Apaixonar
TTITLE7=Chico Amado - Vai Dar Namoro
TTITLE8=Jo„o Victor - A Ferro E Fogo
TTITLE9=F·tima Le„o - Dormi Na Pra«a
EXTD=
EXTT0=
EXTT1=
EXTT2=
EXTT3=
EXTT4=
EXTT5=
EXTT6=
EXTT7=
EXTT8=
EXTT9=
PLAYORDER=
